<svg xmlns="http://www.w3.org/2000/svg" viewBox="0 0 1410.62 713.99" width="1378.62" height="681.99" fill="transparent"><defs><style>@import url('https://fonts.googleapis.com/css2?family=Caveat+Brush&amp;family=Source+Code+Pro&amp;family=Source+Sans+Pro&amp;family=Crimson+Pro&amp;display=block');</style></defs><g transform="translate(337.29999999999995, 108.56) rotate(0, 32.14, 71.64)"><g id="9b18c09e-fa47-4f12-2e46-86a6c67950ac_svg" class="tl-centered-g"><defs><mask id="9b18c09e-fa47-4f12-2e46-86a6c67950ac_clip"><rect x="-100" y="-100" width="264.29" height="343.28" fill="white"/><rect x="32.14" y="71.64" width="0" height="0" rx="4" ry="4" fill="black" opacity="1"/></mask></defs><g pointer-events="none" opacity="1" mask=""><path d="M 0.83,-0.37 Q 0.83,-0.37 8.73,17.32 16.63,35.02 24.54,52.71 32.44,70.41 40.36,88.10 48.27,105.79 56.19,123.48 64.11,141.17 64.14,141.28 64.17,141.39 64.17,141.51 64.16,141.62 64.11,141.73 64.07,141.83 64.00,141.92 63.92,142.01 63.82,142.07 63.72,142.12 63.61,142.15 63.50,142.17 63.38,142.16 63.27,142.14 63.16,142.09 63.06,142.04 62.98,141.96 62.90,141.88 62.84,141.78 62.79,141.68 62.77,141.57 62.76,141.45 62.78,141.34 62.80,141.23 62.85,141.12 62.91,141.02 62.99,140.95 63.07,140.87 63.18,140.82 63.28,140.77 63.40,140.76 63.51,140.75 63.63,140.78 63.74,140.80 63.83,140.86 63.93,140.92 64.01,141.01 64.08,141.10 64.12,141.21 64.16,141.32 64.17,141.43 64.17,141.55 64.14,141.66 64.11,141.77 64.04,141.86 63.98,141.95 63.88,142.02 63.79,142.09 63.68,142.13 63.57,142.16 63.46,142.16 63.34,142.16 63.23,142.12 63.13,142.08 63.04,142.01 62.94,141.94 62.88,141.85 62.82,141.75 62.82,141.75 62.82,141.75 54.87,124.07 46.92,106.40 38.97,88.72 31.02,71.05 23.06,53.38 15.10,35.70 7.13,18.04 -0.83,0.37 -0.86,0.26 -0.89,0.16 -0.90,0.05 -0.91,-0.05 -0.89,-0.16 -0.87,-0.27 -0.82,-0.37 -0.78,-0.47 -0.71,-0.55 -0.64,-0.64 -0.55,-0.71 -0.47,-0.78 -0.37,-0.82 -0.27,-0.87 -0.16,-0.89 -0.05,-0.91 0.05,-0.90 0.16,-0.89 0.27,-0.86 0.37,-0.83 0.46,-0.77 0.56,-0.71 0.64,-0.64 0.71,-0.56 0.77,-0.46 Z" fill="#1d1d1d" stroke="#1d1d1d" stroke-width="2.11" stroke-dasharray="none" stroke-dashoffset="none" stroke-linecap="round" stroke-linejoin="round" pointer-events="stroke"/><g><path d="M 65.91,127.37291727527767 L 64.29,143.29 51.31,133.9226086985893" fill="none" stroke="#1d1d1d" stroke-width="4.23" stroke-linecap="round" stroke-linejoin="round" pointer-events="none"/></g></g></g><g font-size="28" font-family="Caveat Brush" text-align="left" fill="#1d1d1d" transform-origin="top left" transform="translate(24.145000000000003, 55.64)"><text y="18.2"/></g></g><g font-size="28" font-family="Source Code Pro&quot;, monospac" text-align="center" text-anchor="middle" fill="#1d1d1d" transform="translate(1368.6200000000001, 97.74) rotate(0, 13, 19)"><text y="18.2" x="13"> </text></g><g font-size="28" font-family="Source Code Pro&quot;, monospac" text-align="center" text-anchor="middle" fill="#1d1d1d" transform="translate(609.85, 174.5) rotate(0, 133, 145)"><text y="18.2" x="133"> E B S │P(E|B,S)</text><text y="54.59" x="133">───────┼────────</text><text y="91" x="133"> 0 0 0 │    0.96</text><text y="127.39" x="133"> 0 0 1 │    0.04</text><text y="163.79" x="133"> 0 1 0 │    0.06</text><text y="200.2" x="133"> 0 1 1 │    0.01</text><text y="236.6" x="133"> 1 0 0 │    0.10</text><text y="273" x="133"> 1 0 1 │    0.96</text><text y="309.4" x="133"> 1 1 0 │    0.96</text><text y="345.8" x="133"> 1 1 1 │    0.99</text></g><g font-size="28" font-family="Source Code Pro&quot;, monospac" text-align="center" text-anchor="middle" fill="#1d1d1d" transform="translate(127.81, 16) rotate(0, 53, 61)"><text y="18.2" x="53">B│P(B)</text><text y="54.59" x="53">─┼────</text><text y="91" x="53">0│0.99</text><text y="127.39" x="53">1│0.01</text></g><g font-size="28" font-family="Source Code Pro&quot;, monospac" text-align="center" text-anchor="middle" fill="#1d1d1d" transform="translate(704.61, 23.36) rotate(0, 53, 61)"><text y="18.2" x="53">S│P(S)</text><text y="54.59" x="53">─┼────</text><text y="91" x="53">0│0.98</text><text y="127.39" x="53">1│0.02</text></g><g font-size="28" font-family="Source Code Pro&quot;, monospac" text-align="center" text-anchor="middle" fill="#1d1d1d" transform="translate(16, 519.99) rotate(0, 93, 89)"><text y="18.2" x="93"> C E│P(C|E)</text><text y="54.59" x="93"> ───┼──────</text><text y="91" x="93">0 0│ 0.98</text><text y="127.39" x="93">0 1│ 0.01</text><text y="163.79" x="93">1 0│ 0.02</text><text y="200.2" x="93">1 1│ 0.99</text></g><g font-size="28" font-family="Source Code Pro&quot;, monospac" text-align="center" text-anchor="middle" fill="#1d1d1d" transform="translate(655.4, 517.24) rotate(0, 93, 89)"><text y="18.2" x="93"> D E│P(D|E)</text><text y="54.59" x="93"> ───┼──────</text><text y="91" x="93">0 0│ 0.96</text><text y="127.39" x="93">0 1│ 0.03</text><text y="163.79" x="93">1 0│ 0.04</text><text y="200.2" x="93">1 1│ 0.97</text></g><g transform="translate(352.16999999999996, 324.28) rotate(0, 30.77, 97.51)"><g id="6ebaa57a-95af-454a-2286-6e359686b5e1_svg" class="tl-centered-g"><defs><mask id="6ebaa57a-95af-454a-2286-6e359686b5e1_clip"><rect x="-100" y="-100" width="261.55" height="395.03" fill="white"/><rect x="30.77" y="97.51" width="0" height="0" rx="4" ry="4" fill="black" opacity="1"/></mask></defs><g pointer-events="none" opacity="1" mask=""><path d="M 62.52,0.30 Q 62.52,0.30 54.88,24.44 47.23,48.57 39.59,72.70 31.95,96.83 24.32,120.97 16.68,145.11 9.05,169.24 1.42,193.38 1.36,193.50 1.30,193.63 1.20,193.73 1.10,193.83 0.97,193.89 0.85,193.95 0.71,193.97 0.57,193.98 0.43,193.96 0.29,193.93 0.17,193.86 0.05,193.79 -0.03,193.68 -0.13,193.58 -0.18,193.45 -0.24,193.32 -0.25,193.18 -0.26,193.04 -0.22,192.90 -0.19,192.77 -0.11,192.65 -0.03,192.53 0.07,192.45 0.18,192.36 0.31,192.31 0.44,192.26 0.58,192.26 0.72,192.26 0.85,192.30 0.99,192.34 1.10,192.43 1.22,192.51 1.30,192.62 1.38,192.74 1.42,192.87 1.46,193.01 1.45,193.15 1.45,193.29 1.40,193.42 1.35,193.55 1.26,193.66 1.17,193.77 1.05,193.84 0.93,193.92 0.80,193.95 0.66,193.98 0.52,193.97 0.38,193.96 0.25,193.90 0.12,193.84 0.02,193.75 -0.07,193.66 -0.14,193.53 -0.21,193.41 -0.24,193.27 -0.26,193.13 -0.24,193.00 -0.22,192.86 -0.22,192.86 -0.22,192.86 7.38,168.71 14.98,144.57 22.59,120.42 30.19,96.28 37.79,72.13 45.39,47.98 52.98,23.84 60.57,-0.30 60.62,-0.42 60.67,-0.53 60.75,-0.63 60.82,-0.72 60.92,-0.80 61.02,-0.88 61.13,-0.93 61.24,-0.98 61.37,-1.00 61.49,-1.02 61.61,-1.01 61.73,-1.00 61.85,-0.97 61.97,-0.93 62.08,-0.86 62.18,-0.80 62.27,-0.71 62.36,-0.62 62.42,-0.52 62.48,-0.41 62.52,-0.29 62.56,-0.18 62.56,-0.05 62.57,0.06 62.55,0.18 Z" fill="#1d1d1d" stroke="#1d1d1d" stroke-width="2.11" stroke-dasharray="none" stroke-dashoffset="none" stroke-linecap="round" stroke-linejoin="round" pointer-events="stroke"/><g><path d="M 11.79,184.2237079568833 L 0,195.03 -3.458861315175442,179.40833944798499" fill="none" stroke="#1d1d1d" stroke-width="4.23" stroke-linecap="round" stroke-linejoin="round" pointer-events="none"/></g></g></g><g font-size="28" font-family="Source Code Pro&quot;, monospac" text-align="left" fill="#1d1d1d" transform-origin="top left" transform="translate(22.775, 81.51)"><text y="18.2"/></g></g><g transform="translate(457.4, 37.65) rotate(0, 59.52, 32.01)"><g id="2d563c63-f436-499a-2ae8-161b1d3b9780_svg" class="tl-centered-g"><path d="M 119.34,43.73 Q 119.34,43.73 119.47,46.66 119.60,49.60 119.73,53.35 119.85,57.10 118.03,60.06 116.20,63.02 109.66,63.79 103.11,64.56 95.70,64.64 88.29,64.72 80.62,64.68 72.96,64.64 65.22,64.66 57.48,64.68 49.73,64.79 41.97,64.89 34.22,65.00 26.46,65.10 18.67,65.20 10.88,65.30 6.94,63.55 2.99,61.80 1.87,58.14 0.74,54.47 0.54,50.55 0.34,46.63 0.32,42.71 0.31,38.80 0.25,34.87 0.18,30.95 0.04,27.03 -0.10,23.10 -0.24,19.17 -0.38,15.25 -0.51,11.26 -0.63,7.27 1.19,4.25 3.01,1.23 9.55,0.43 16.09,-0.36 23.50,-0.46 30.90,-0.56 38.57,-0.53 46.23,-0.50 53.96,-0.54 61.70,-0.58 69.45,-0.70 77.20,-0.82 84.95,-0.94 92.70,-1.06 100.49,-1.17 108.27,-1.28 112.21,0.45 116.16,2.20 117.29,5.87 118.41,9.55 118.62,13.48 118.83,17.41 118.85,21.34 118.87,25.28 118.93,29.21 119.00,33.15 119.15,37.09 119.30,41.03 119.46,46.32 119.63,51.61 119.59,51.84 119.56,52.08 119.45,52.29 119.34,52.50 119.17,52.66 119.00,52.83 118.79,52.93 118.58,53.03 118.34,53.06 118.11,53.09 117.87,53.04 117.64,53.00 117.44,52.88 117.23,52.76 117.08,52.58 116.92,52.40 116.83,52.18 116.74,51.96 116.72,51.73 116.71,51.49 116.77,51.26 116.83,51.03 116.96,50.83 117.09,50.64 117.28,50.49 117.46,50.34 117.69,50.27 117.91,50.19 118.15,50.18 118.38,50.18 118.61,50.25 118.83,50.33 119.02,50.47 119.22,50.61 119.35,50.80 119.49,51.00 119.55,51.22 119.62,51.45 119.61,51.69 119.60,51.92 119.52,52.14 119.43,52.37 119.28,52.55 119.13,52.73 118.93,52.86 118.73,52.98 118.50,53.03 118.26,53.09 118.03,53.07 117.79,53.04 117.58,52.95 117.36,52.85 117.19,52.69 117.01,52.53 116.90,52.32 116.78,52.11 116.74,51.88 116.70,51.65 116.70,51.65 116.70,51.65 116.72,46.36 116.74,41.07 116.78,37.13 116.81,33.19 116.75,29.26 116.68,25.34 116.48,21.47 116.28,17.60 115.94,13.96 115.59,10.33 114.87,7.38 114.15,4.43 111.16,3.20 108.17,1.98 100.44,1.92 92.71,1.86 84.96,1.79 77.20,1.73 69.46,1.66 61.71,1.60 53.98,1.63 46.25,1.67 38.61,1.83 30.97,1.99 23.68,2.26 16.40,2.54 10.62,3.05 4.85,3.55 3.72,5.52 2.59,7.48 2.56,11.35 2.54,15.21 2.49,19.14 2.45,23.07 2.41,26.99 2.37,30.92 2.43,34.83 2.49,38.74 2.69,42.59 2.89,46.45 3.23,50.07 3.57,53.69 4.28,56.63 5.00,59.57 7.99,60.80 10.98,62.02 18.72,62.10 26.45,62.18 34.21,62.26 41.97,62.34 49.72,62.42 57.48,62.50 65.21,62.47 72.94,62.45 80.59,62.31 88.23,62.16 95.53,61.91 102.82,61.65 108.59,61.16 114.37,60.68 115.50,58.78 116.62,56.88 116.65,53.26 116.67,49.64 116.73,46.70 116.78,43.76 116.80,43.61 116.81,43.46 116.87,43.31 116.92,43.17 117.01,43.04 117.09,42.91 117.21,42.81 117.32,42.70 117.45,42.63 117.59,42.56 117.74,42.52 117.89,42.48 118.04,42.48 118.20,42.47 118.35,42.51 118.50,42.54 118.63,42.61 118.77,42.68 118.89,42.78 119.01,42.88 119.09,43.01 119.18,43.14 119.24,43.28 119.30,43.42 119.32,43.57 Z" fill="#1d1d1d" stroke="#1d1d1d" stroke-width="2" pointer-events="none"/></g><g font-size="28" font-family="Source Code Pro&quot;, monospac" text-align="left" fill="#1d1d1d" transform-origin="top left" transform="translate(14.524999999999999, 13.01)"><text y="18.2">Solar</text></g></g><g transform="translate(454.15, 101.68) rotate(0, 31.67, 75.08)"><g id="ca3946f2-05b0-41a6-1195-cb5cda4225f4_svg" class="tl-centered-g"><defs><mask id="ca3946f2-05b0-41a6-1195-cb5cda4225f4_clip"><rect x="-100" y="-100" width="263.34" height="350.16" fill="white"/><rect x="31.67" y="75.08" width="0" height="0" rx="4" ry="4" fill="black" opacity="1"/></mask></defs><g pointer-events="none" opacity="1" mask=""><path d="M 64.16,0.34 Q 64.16,0.34 56.31,18.87 48.45,37.40 40.60,55.93 32.76,74.46 24.92,92.99 17.08,111.52 9.24,130.06 1.41,148.59 1.35,148.69 1.29,148.78 1.20,148.85 1.12,148.92 1.01,148.96 0.91,149.00 0.80,149.00 0.68,149.01 0.58,148.98 0.47,148.94 0.38,148.88 0.29,148.81 0.22,148.72 0.16,148.63 0.12,148.53 0.09,148.42 0.09,148.31 0.09,148.20 0.13,148.09 0.17,147.99 0.24,147.90 0.31,147.81 0.40,147.75 0.49,147.69 0.60,147.66 0.71,147.63 0.82,147.64 0.93,147.65 1.04,147.69 1.14,147.74 1.22,147.81 1.31,147.89 1.36,147.98 1.42,148.08 1.44,148.19 1.46,148.30 1.45,148.41 1.43,148.52 1.38,148.62 1.34,148.72 1.26,148.80 1.18,148.88 1.08,148.93 0.98,148.98 0.87,149.00 0.76,149.01 0.65,148.99 0.54,148.97 0.44,148.92 0.34,148.86 0.27,148.78 0.19,148.70 0.15,148.60 0.10,148.49 0.09,148.38 0.08,148.27 0.11,148.16 0.14,148.05 0.14,148.05 0.14,148.05 7.94,129.51 15.75,110.96 23.55,92.41 31.35,73.86 39.14,55.31 46.94,36.76 54.72,18.20 62.51,-0.34 62.56,-0.44 62.61,-0.53 62.69,-0.61 62.76,-0.69 62.86,-0.75 62.95,-0.81 63.05,-0.84 63.15,-0.87 63.26,-0.88 63.37,-0.89 63.47,-0.88 63.58,-0.86 63.68,-0.82 63.78,-0.77 63.87,-0.71 63.96,-0.65 64.02,-0.56 64.09,-0.48 64.14,-0.38 64.19,-0.28 64.21,-0.18 64.23,-0.07 64.23,0.03 64.22,0.14 64.19,0.24 Z" fill="#1d1d1d" stroke="#1d1d1d" stroke-width="2.11" stroke-dasharray="none" stroke-dashoffset="none" stroke-linecap="round" stroke-linejoin="round" pointer-events="stroke"/><g><path d="M 12.75,140.51187248820176 L 0,150.17 -1.9860850613897307,134.2937452108841" fill="none" stroke="#1d1d1d" stroke-width="4.23" stroke-linecap="round" stroke-linejoin="round" pointer-events="none"/></g></g></g><g font-size="28" font-family="Source Code Pro&quot;, monospac" text-align="left" fill="#1d1d1d" transform-origin="top left" transform="translate(23.67, 59.08)"><text y="18.2"/></g></g><g transform="translate(255.96, 40.62) rotate(0, 80.94, 32.31)"><g id="9c74eaf1-042d-4610-0534-e3086b3879a9_svg" class="tl-centered-g"><path d="M 161.92,43.59 Q 161.92,43.59 162.03,46.52 162.13,49.45 162.22,53.19 162.31,56.92 160.47,59.87 158.63,62.83 151.58,63.64 144.52,64.46 136.46,64.60 128.41,64.73 120.07,64.75 111.72,64.77 103.30,64.75 94.87,64.74 86.43,64.79 77.99,64.85 69.54,64.97 61.09,65.09 52.64,65.21 44.19,65.33 35.74,65.46 27.29,65.58 18.82,65.69 10.35,65.81 6.22,64.06 2.09,62.31 0.99,58.59 -0.10,54.88 -0.23,50.89 -0.35,46.91 -0.28,42.92 -0.20,38.94 -0.17,34.95 -0.15,30.95 -0.20,26.96 -0.25,22.96 -0.30,18.97 -0.35,14.97 -0.38,10.92 -0.41,6.86 1.44,3.83 3.29,0.80 10.32,0.00 17.34,-0.79 25.36,-0.88 33.37,-0.97 41.67,-0.94 49.97,-0.91 58.35,-0.84 66.72,-0.78 75.12,-0.78 83.52,-0.78 91.92,-0.85 100.32,-0.92 108.73,-0.99 117.13,-1.05 125.53,-1.12 133.94,-1.19 142.37,-1.26 150.79,-1.32 154.90,0.42 159.01,2.17 160.15,5.84 161.30,9.51 161.48,13.44 161.66,17.36 161.64,21.28 161.63,25.20 161.66,29.13 161.69,33.05 161.80,36.98 161.91,40.91 162.02,46.18 162.14,51.45 162.10,51.69 162.06,51.92 161.95,52.13 161.84,52.34 161.67,52.50 161.50,52.67 161.29,52.77 161.07,52.87 160.84,52.89 160.60,52.92 160.37,52.87 160.14,52.82 159.93,52.70 159.73,52.58 159.58,52.40 159.42,52.22 159.33,52.00 159.24,51.78 159.23,51.54 159.22,51.30 159.28,51.08 159.34,50.85 159.47,50.65 159.61,50.45 159.79,50.31 159.98,50.17 160.21,50.09 160.43,50.01 160.67,50.01 160.90,50.01 161.13,50.09 161.35,50.16 161.54,50.30 161.73,50.45 161.87,50.64 162.00,50.84 162.06,51.07 162.13,51.29 162.12,51.53 162.10,51.77 162.02,51.99 161.93,52.21 161.78,52.39 161.63,52.57 161.42,52.69 161.22,52.82 160.99,52.87 160.76,52.92 160.52,52.89 160.29,52.87 160.07,52.77 159.86,52.67 159.68,52.51 159.51,52.35 159.40,52.14 159.29,51.93 159.25,51.70 159.21,51.46 159.21,51.46 159.21,51.46 159.28,46.19 159.35,40.92 159.43,36.99 159.50,33.07 159.47,29.15 159.44,25.24 159.28,21.39 159.11,17.53 158.79,13.91 158.48,10.30 157.75,7.35 157.02,4.40 153.86,3.18 150.70,1.95 142.32,1.88 133.94,1.81 125.53,1.73 117.13,1.66 108.73,1.58 100.32,1.51 91.92,1.43 83.52,1.36 75.12,1.36 66.73,1.36 58.35,1.44 49.98,1.52 41.70,1.63 33.42,1.74 25.53,1.97 17.63,2.20 11.37,2.67 5.10,3.15 3.96,5.13 2.81,7.12 2.69,11.06 2.57,15.00 2.43,18.99 2.30,22.99 2.16,26.98 2.03,30.97 2.00,34.95 1.97,38.93 2.08,42.85 2.19,46.78 2.45,50.46 2.72,54.14 3.41,57.13 4.10,60.12 7.26,61.33 10.42,62.53 18.85,62.55 27.28,62.57 35.73,62.59 44.18,62.61 52.63,62.63 61.08,62.66 69.53,62.68 77.97,62.70 86.42,62.65 94.86,62.60 103.28,62.47 111.69,62.33 120.02,62.17 128.34,62.01 136.28,61.74 144.22,61.47 150.52,60.97 156.81,60.48 157.94,58.58 159.08,56.68 159.14,53.07 159.20,49.46 159.28,46.53 159.37,43.60 159.38,43.45 159.40,43.30 159.46,43.15 159.51,43.01 159.60,42.88 159.68,42.76 159.80,42.65 159.91,42.55 160.05,42.48 160.19,42.41 160.34,42.37 160.49,42.33 160.64,42.33 160.79,42.33 160.94,42.37 161.09,42.40 161.23,42.47 161.37,42.54 161.48,42.65 161.60,42.75 161.69,42.87 161.77,43.00 161.83,43.15 161.88,43.29 161.90,43.44 Z" fill="#1d1d1d" stroke="#1d1d1d" stroke-width="2" pointer-events="none"/></g><g font-size="28" font-family="Source Code Pro&quot;, monospac" text-align="left" fill="#1d1d1d" transform-origin="top left" transform="translate(19.939999999999998, 13.31)"><text y="18.2">Battery</text></g></g><g transform="translate(369.85999999999996, 267.85) rotate(0, 65.63, 28.21)"><g id="2b2b7ba7-b090-4ada-129b-5a5482b6e609_svg" class="tl-centered-g"><path d="M 91.24,0.01 Q 91.24,0.01 97.65,-0.10 104.05,-0.21 112.11,-0.32 120.18,-0.43 124.18,1.28 128.18,3.00 129.31,6.23 130.45,9.46 130.64,12.86 130.83,16.25 130.83,19.60 130.82,22.95 130.86,26.29 130.90,29.63 131.02,32.98 131.14,36.32 131.26,39.66 131.38,43.00 131.47,46.42 131.57,49.83 129.73,52.70 127.89,55.57 120.72,56.29 113.56,57.01 105.37,57.04 97.19,57.08 88.70,57.00 80.21,56.93 71.65,56.91 63.08,56.90 54.49,56.97 45.91,57.04 37.31,57.11 28.72,57.18 20.10,57.24 11.49,57.30 7.36,55.58 3.23,53.85 2.05,50.66 0.87,47.46 0.66,44.11 0.45,40.75 0.45,37.45 0.46,34.15 0.41,30.86 0.37,27.57 0.25,24.27 0.12,20.98 0.00,17.69 -0.11,14.40 -0.21,11.03 -0.31,7.67 1.51,4.81 3.34,1.96 10.52,1.21 17.69,0.45 25.87,0.37 34.06,0.28 42.55,0.31 51.04,0.34 59.61,0.30 68.18,0.27 76.77,0.15 85.36,0.02 96.90,-0.09 108.43,-0.22 108.67,-0.18 108.90,-0.15 109.11,-0.04 109.32,0.06 109.49,0.23 109.65,0.41 109.75,0.62 109.85,0.84 109.88,1.07 109.90,1.31 109.85,1.54 109.80,1.77 109.68,1.97 109.56,2.18 109.38,2.33 109.20,2.48 108.98,2.57 108.76,2.66 108.52,2.67 108.29,2.69 108.06,2.63 107.83,2.56 107.63,2.43 107.44,2.30 107.29,2.11 107.15,1.92 107.07,1.70 107.00,1.47 106.99,1.24 106.99,1.00 107.07,0.77 107.14,0.55 107.29,0.36 107.43,0.17 107.63,0.04 107.82,-0.09 108.05,-0.15 108.28,-0.21 108.51,-0.20 108.75,-0.19 108.97,-0.10 109.19,-0.02 109.37,0.13 109.55,0.28 109.68,0.48 109.80,0.69 109.85,0.92 109.90,1.15 109.88,1.38 109.85,1.62 109.75,1.83 109.65,2.05 109.49,2.22 109.33,2.40 109.12,2.51 108.91,2.62 108.68,2.66 108.44,2.70 108.44,2.70 108.44,2.70 96.91,2.64 85.37,2.58 76.78,2.52 68.19,2.45 59.62,2.49 51.06,2.52 42.59,2.68 34.12,2.84 26.03,3.10 17.95,3.37 11.56,3.85 5.16,4.32 4.03,6.12 2.89,7.93 2.85,11.15 2.81,14.37 2.74,17.66 2.68,20.96 2.62,24.25 2.56,27.54 2.60,30.81 2.64,34.09 2.82,37.32 3.00,40.54 3.32,43.54 3.64,46.54 4.38,49.01 5.12,51.49 8.35,52.75 11.59,54.02 20.16,54.13 28.73,54.25 37.32,54.36 45.91,54.48 54.50,54.60 63.09,54.71 71.65,54.73 80.21,54.74 88.68,54.63 97.15,54.53 105.23,54.31 113.31,54.09 119.70,53.65 126.09,53.20 127.22,51.39 128.35,49.57 128.40,46.30 128.45,43.03 128.51,39.68 128.58,36.34 128.65,33.00 128.71,29.66 128.67,26.33 128.63,23.00 128.46,19.73 128.28,16.45 127.97,13.39 127.66,10.34 126.95,7.84 126.25,5.33 123.17,4.08 120.09,2.84 112.07,2.77 104.06,2.71 97.65,2.64 91.25,2.56 91.09,2.54 90.94,2.53 90.80,2.47 90.65,2.42 90.53,2.33 90.40,2.24 90.30,2.13 90.19,2.01 90.12,1.88 90.05,1.74 90.01,1.59 89.98,1.44 89.97,1.29 89.97,1.13 90.01,0.98 90.05,0.83 90.12,0.70 90.19,0.56 90.29,0.45 90.39,0.33 90.52,0.24 90.65,0.15 90.79,0.10 90.93,0.04 91.09,0.02 Z" fill="#1d1d1d" stroke="#1d1d1d" stroke-width="2" pointer-events="none"/></g><g font-size="28" font-family="Source Code Pro&quot;, monospac" text-align="left" fill="#1d1d1d" transform-origin="top left" transform="translate(20.635000000000005, 9.21)"><text y="18.2">Error</text></g></g><g transform="translate(203.82, 522.88) rotate(0, 111.83, 37.79)"><g id="7eba65a8-9f9f-41a7-1146-badc95fd553b_svg" class="tl-centered-g"><path d="M 223.92,52.06 Q 223.92,52.06 224.00,55.61 224.08,59.15 224.14,63.65 224.20,68.15 222.34,71.30 220.48,74.45 213.12,75.29 205.75,76.13 197.30,76.23 188.85,76.33 180.09,76.30 171.32,76.27 162.48,76.20 153.64,76.14 144.77,76.07 135.90,76.00 127.03,75.92 118.16,75.85 109.29,75.88 100.42,75.92 91.54,75.95 82.67,75.98 73.80,76.02 64.92,76.05 56.05,76.08 47.18,76.12 38.31,76.15 29.43,76.19 20.54,76.21 11.64,76.24 7.41,74.47 3.18,72.70 1.95,68.50 0.71,64.30 0.45,59.72 0.19,55.15 0.12,50.52 0.06,45.90 -0.04,41.27 -0.15,36.63 -0.34,31.99 -0.54,27.35 -0.72,22.71 -0.91,18.07 -1.09,13.37 -1.26,8.67 0.56,5.45 2.39,2.24 9.79,1.34 17.19,0.43 25.71,0.27 34.22,0.10 43.05,0.07 51.87,0.04 60.79,0.03 69.70,0.03 78.63,0.04 87.56,0.05 96.50,0.06 105.44,0.06 114.38,-0.02 123.32,-0.12 132.25,-0.22 141.19,-0.32 150.13,-0.42 159.07,-0.52 168.01,-0.62 176.95,-0.72 185.89,-0.81 194.83,-0.91 203.79,-1.01 212.75,-1.10 217.02,0.66 221.29,2.44 222.43,6.71 223.57,10.99 223.73,15.67 223.88,20.35 223.83,25.08 223.78,29.80 223.78,34.55 223.78,39.30 223.86,44.05 223.93,48.81 224.00,55.19 224.07,61.57 224.03,61.81 223.99,62.04 223.88,62.25 223.77,62.46 223.60,62.62 223.42,62.78 223.21,62.88 222.99,62.98 222.76,63.01 222.52,63.03 222.29,62.98 222.06,62.93 221.86,62.80 221.65,62.68 221.50,62.50 221.35,62.32 221.26,62.10 221.18,61.88 221.16,61.64 221.15,61.40 221.22,61.18 221.28,60.95 221.41,60.75 221.55,60.56 221.74,60.41 221.93,60.27 222.15,60.20 222.38,60.12 222.61,60.12 222.85,60.12 223.07,60.20 223.30,60.28 223.49,60.42 223.67,60.57 223.81,60.76 223.94,60.96 224.00,61.19 224.06,61.42 224.05,61.65 224.04,61.89 223.95,62.11 223.86,62.33 223.70,62.51 223.55,62.69 223.35,62.81 223.14,62.93 222.91,62.98 222.68,63.03 222.44,63.00 222.21,62.98 221.99,62.88 221.78,62.78 221.61,62.61 221.44,62.45 221.33,62.24 221.22,62.03 221.18,61.80 221.14,61.56 221.14,61.56 221.14,61.56 221.26,55.18 221.38,48.80 221.48,44.05 221.59,39.30 221.60,34.56 221.60,29.82 221.46,25.15 221.33,20.48 221.03,16.07 220.73,11.67 219.98,8.10 219.23,4.53 215.95,3.35 212.68,2.17 203.76,2.17 194.85,2.16 185.91,2.15 176.97,2.14 168.03,2.13 159.09,2.12 150.15,2.11 141.21,2.10 132.27,2.09 123.33,2.08 114.39,2.07 105.45,2.06 96.51,2.16 87.57,2.26 78.64,2.36 69.71,2.47 60.81,2.58 51.90,2.69 43.10,2.83 34.29,2.97 25.90,3.24 17.50,3.50 10.84,4.03 4.17,4.56 3.07,6.69 1.97,8.82 1.99,13.41 2.00,18.01 2.01,22.65 2.01,27.30 2.02,31.94 2.02,36.58 2.13,41.20 2.24,45.83 2.49,50.39 2.74,54.96 3.14,59.26 3.54,63.56 4.37,67.04 5.19,70.52 8.46,71.74 11.74,72.96 20.59,73.03 29.44,73.10 38.31,73.18 47.18,73.25 56.06,73.33 64.93,73.40 73.80,73.48 82.68,73.55 91.55,73.62 100.42,73.70 109.29,73.77 118.17,73.85 127.04,73.81 135.91,73.78 144.77,73.74 153.64,73.71 162.48,73.66 171.32,73.62 180.06,73.54 188.80,73.46 197.13,73.26 205.47,73.06 212.08,72.59 218.70,72.11 219.83,70.02 220.96,67.92 221.06,63.53 221.15,59.14 221.26,55.59 221.37,52.05 221.39,51.90 221.40,51.75 221.46,51.60 221.52,51.46 221.60,51.33 221.69,51.20 221.81,51.10 221.92,51.00 222.06,50.93 222.20,50.86 222.35,50.82 222.50,50.79 222.65,50.79 222.80,50.79 222.95,50.83 223.10,50.86 223.24,50.94 223.38,51.01 223.49,51.11 223.61,51.21 223.69,51.34 223.78,51.47 223.83,51.61 223.89,51.76 223.91,51.91 Z" fill="#1d1d1d" stroke="#1d1d1d" stroke-width="2" pointer-events="none"/></g><g font-size="28" font-family="Source Code Pro&quot;, monospac" text-align="left" fill="#1d1d1d" transform-origin="top left" transform="translate(3.3349999999999937, 18.79)"><text y="18.2">Communication</text></g></g><g transform="translate(460.78, 520.81) rotate(0, 84.67, 37.35)"><g id="2b842f1d-82ad-4aa1-266b-3a7f0d3fa314_svg" class="tl-centered-g"><path d="M 93.75,-0.24 Q 93.75,-0.24 100.38,-0.36 107.01,-0.48 115.34,-0.60 123.67,-0.73 132.42,-0.86 141.18,-0.99 150.07,-1.12 158.96,-1.24 163.21,0.52 167.46,2.29 168.59,6.52 169.71,10.74 169.84,15.37 169.98,19.99 169.91,24.65 169.84,29.32 169.82,34.00 169.79,38.69 169.85,43.38 169.91,48.07 169.96,52.76 170.02,57.45 170.06,62.19 170.10,66.93 168.24,70.15 166.37,73.36 159.03,74.22 151.69,75.09 143.27,75.20 134.85,75.32 126.12,75.31 117.40,75.30 108.59,75.25 99.78,75.20 90.94,75.22 82.11,75.24 73.28,75.32 64.44,75.41 55.60,75.50 46.77,75.58 37.93,75.67 29.09,75.75 20.23,75.84 11.37,75.92 7.14,74.15 2.91,72.38 1.72,68.19 0.52,64.00 0.31,59.43 0.09,54.86 0.07,50.25 0.06,45.64 -0.00,41.02 -0.06,36.39 -0.20,31.76 -0.35,27.13 -0.49,22.49 -0.63,17.86 -0.76,13.18 -0.89,8.49 0.94,5.28 2.79,2.08 10.17,1.18 17.55,0.29 26.03,0.13 34.52,-0.02 43.31,-0.05 52.10,-0.08 60.98,-0.08 69.86,-0.08 78.76,-0.14 87.65,-0.20 96.56,-0.33 105.46,-0.47 117.41,-0.62 129.37,-0.77 129.58,-0.73 129.80,-0.70 130.00,-0.60 130.19,-0.50 130.35,-0.34 130.50,-0.18 130.59,0.01 130.69,0.21 130.71,0.43 130.74,0.65 130.69,0.86 130.64,1.08 130.53,1.27 130.42,1.46 130.25,1.60 130.09,1.74 129.88,1.83 129.68,1.91 129.46,1.92 129.24,1.94 129.03,1.88 128.81,1.82 128.63,1.70 128.45,1.58 128.31,1.40 128.18,1.23 128.11,1.02 128.03,0.81 128.03,0.59 128.03,0.37 128.10,0.16 128.17,-0.04 128.30,-0.21 128.43,-0.39 128.62,-0.51 128.80,-0.64 129.01,-0.70 129.22,-0.76 129.44,-0.75 129.66,-0.74 129.87,-0.66 130.07,-0.58 130.24,-0.44 130.41,-0.30 130.52,-0.11 130.64,0.07 130.69,0.28 130.73,0.50 130.71,0.72 130.69,0.94 130.60,1.14 130.51,1.34 130.36,1.50 130.21,1.66 130.01,1.76 129.82,1.87 129.60,1.91 129.38,1.94 129.38,1.94 129.39,1.94 117.43,1.95 105.48,1.96 96.57,1.94 87.67,1.93 78.77,1.99 69.87,2.06 61.00,2.20 52.13,2.34 43.36,2.51 34.59,2.69 26.23,2.99 17.86,3.28 11.22,3.84 4.58,4.39 3.47,6.53 2.35,8.67 2.32,13.25 2.29,17.83 2.24,22.47 2.20,27.10 2.16,31.73 2.12,36.36 2.18,40.98 2.24,45.59 2.44,50.14 2.64,54.70 3.00,58.99 3.36,63.28 4.15,66.75 4.94,70.23 8.19,71.43 11.45,72.63 20.27,72.69 29.08,72.74 37.92,72.80 46.76,72.86 55.60,72.92 64.44,72.98 73.27,73.03 82.11,73.09 90.94,73.07 99.77,73.06 108.57,72.96 117.38,72.86 126.08,72.73 134.79,72.60 143.09,72.35 151.39,72.09 157.99,71.56 164.58,71.03 165.72,68.87 166.85,66.71 166.97,62.07 167.09,57.43 167.22,52.74 167.35,48.05 167.48,43.36 167.61,38.68 167.63,34.00 167.65,29.33 167.54,24.72 167.42,20.11 167.14,15.76 166.86,11.42 166.13,7.90 165.40,4.38 162.15,3.20 158.90,2.03 150.05,2.02 141.20,2.01 132.44,2.00 123.68,1.98 115.36,1.96 107.03,1.95 100.40,1.92 93.76,1.89 93.63,1.88 93.50,1.86 93.38,1.82 93.26,1.77 93.15,1.70 93.05,1.62 92.96,1.53 92.87,1.43 92.81,1.32 92.75,1.20 92.72,1.08 92.69,0.95 92.69,0.82 92.69,0.70 92.72,0.57 92.75,0.44 92.81,0.33 92.87,0.21 92.95,0.12 93.04,0.02 93.14,-0.04 93.25,-0.12 93.37,-0.17 93.49,-0.21 93.62,-0.23 Z" fill="#1d1d1d" stroke="#1d1d1d" stroke-width="2" pointer-events="none"/></g><g font-size="28" font-family="Source Code Pro&quot;, monospac" text-align="left" fill="#1d1d1d" transform-origin="top left" transform="translate(15.674999999999997, 18.35)"><text y="18.2">Datalink</text></g></g><g transform="translate(448.27, 324.28) rotate(0, 40.86, 90.26)"><g id="99d50544-35b2-485e-0d02-3d19100c88e2_svg" class="tl-centered-g"><defs><mask id="99d50544-35b2-485e-0d02-3d19100c88e2_clip"><rect x="-100" y="-100" width="281.73" height="380.53" fill="white"/><rect x="40.86" y="90.26" width="0" height="0" rx="4" ry="4" fill="black" opacity="1"/></mask></defs><g pointer-events="none" opacity="1" mask=""><path d="M 0.87,-0.39 Q 0.87,-0.39 10.95,21.95 21.03,44.31 31.12,66.66 41.21,89.00 51.31,111.35 61.40,133.70 71.50,156.04 81.60,178.39 81.63,178.51 81.67,178.63 81.66,178.75 81.65,178.87 81.60,178.99 81.56,179.11 81.48,179.20 81.39,179.29 81.29,179.36 81.18,179.42 81.06,179.45 80.94,179.47 80.81,179.46 80.69,179.44 80.58,179.39 80.46,179.34 80.37,179.25 80.28,179.16 80.23,179.05 80.17,178.94 80.15,178.82 80.13,178.70 80.15,178.57 80.17,178.45 80.23,178.34 80.29,178.23 80.38,178.15 80.47,178.06 80.59,178.01 80.70,177.96 80.82,177.95 80.95,177.93 81.07,177.96 81.19,177.99 81.30,178.05 81.40,178.12 81.48,178.22 81.56,178.31 81.61,178.43 81.65,178.54 81.66,178.67 81.67,178.79 81.63,178.91 81.60,179.03 81.53,179.14 81.46,179.24 81.36,179.31 81.26,179.39 81.14,179.43 81.02,179.46 80.89,179.46 80.77,179.46 80.65,179.42 80.53,179.38 80.43,179.30 80.34,179.23 80.27,179.12 80.20,179.02 80.20,179.02 80.20,179.02 70.07,156.69 59.95,134.36 49.82,112.02 39.69,89.69 29.55,67.37 19.41,45.04 9.27,22.71 -0.87,0.39 -0.90,0.28 -0.94,0.17 -0.94,0.05 -0.95,-0.05 -0.93,-0.16 -0.91,-0.28 -0.86,-0.38 -0.81,-0.49 -0.74,-0.58 -0.67,-0.67 -0.58,-0.74 -0.49,-0.81 -0.39,-0.86 -0.28,-0.91 -0.17,-0.93 -0.05,-0.95 0.05,-0.94 0.17,-0.94 0.28,-0.90 0.39,-0.87 0.48,-0.81 0.58,-0.75 0.66,-0.67 0.75,-0.59 0.81,-0.49 Z" fill="#1d1d1d" stroke="#1d1d1d" stroke-width="2.11" stroke-dasharray="none" stroke-dashoffset="none" stroke-linecap="round" stroke-linejoin="round" pointer-events="stroke"/><g><path d="M 83.30,164.60752866257084 L 81.73,180.53 68.72,171.20634740480492" fill="none" stroke="#1d1d1d" stroke-width="4.23" stroke-linecap="round" stroke-linejoin="round" pointer-events="none"/></g></g></g><g font-size="28" font-family="Source Code Pro&quot;, monospac" text-align="left" fill="#1d1d1d" transform-origin="top left" transform="translate(32.865, 74.26)"><text y="18.2"/></g></g></svg>